<?xml version="1.0" ?><!DOCTYPE svg  PUBLIC '-//W3C//DTD SVG 1.1//EN'  'http://www.w3.org/Graphics/SVG/1.1/DTD/svg11.dtd'><svg xmlns="http://www.w3.org/2000/svg" xmlns:xlink="http://www.w3.org/1999/xlink" xmlns:serif="http://www.serif.com/" width="50%" height="50%" viewBox="0 0 512 512" version="1.1" xml:space="preserve" style="fill-rule:evenodd;clip-rule:evenodd;stroke-linejoin:round;stroke-miterlimit:2;"><g transform="matrix(1,0,0,1,-2248,-1124)"><g id="Icons"><path d="M2680.06,1445.15C2682.35,1447.11 2684.73,1448.99 2687.41,1450.65C2690.45,1452.53 2693.85,1453.74 2697.2,1455.03C2699.91,1456.08 2702.6,1457.18 2704.86,1459.07C2707.05,1460.91 2708.13,1463.85 2708.69,1467.03C2709.7,1472.69 2708.96,1479.2 2707.8,1483.7C2707.41,1485.23 2706.27,1486.04 2704.99,1486.62C2703.66,1487.24 2702.16,1487.62 2700.7,1487.96C2693.4,1489.64 2685.11,1490.4 2678.39,1493.88C2676.25,1494.99 2670.83,1498.04 2668.9,1501.2C2667.31,1503.81 2667.19,1506.53 2669.26,1509.14C2670.06,1510.15 2671.22,1510.88 2672.65,1511.25C2674.07,1511.62 2675.97,1511.51 2677.1,1511.62C2682.08,1512.1 2687.2,1511.94 2692.2,1511.87C2698.3,1511.79 2704.39,1511.77 2710.48,1511.76C2714.89,1511.75 2720.03,1511.7 2723.9,1509.17C2728.22,1506.35 2730.64,1502.09 2732.88,1497.58C2734.59,1494.12 2735.91,1490.47 2737.24,1486.86C2741.24,1475.98 2742.78,1464.63 2745.32,1453.41C2745.93,1450.73 2746.87,1447.83 2747.44,1444.91C2748.14,1441.36 2748.29,1437.78 2747.2,1434.42C2745.86,1430.26 2742.87,1426.74 2740.41,1423.2C2734.77,1415.06 2726.13,1406.45 2721.68,1397.22C2726.73,1391.7 2729.93,1384.82 2729.81,1375.96C2729.59,1358.46 2727.81,1339.2 2718.29,1324.07C2706.39,1305.17 2683.8,1294.86 2664.22,1286.19C2647.18,1278.64 2630.16,1270.8 2612.02,1266.32C2583.09,1259.18 2551.3,1260.19 2521.99,1264.25C2508.37,1266.14 2495.37,1270.71 2482.33,1274.88C2469.89,1278.86 2457.43,1282.49 2444.28,1282.68C2437.71,1282.78 2424.9,1282.44 2413.88,1280.53C2407.23,1279.38 2401.22,1277.81 2398.16,1275.12C2394.65,1272.01 2392.72,1267.71 2390.55,1263.57C2387.84,1258.4 2384.84,1253.45 2379.73,1250.12C2378.07,1249.04 2374.02,1247.04 2370.73,1246.52C2368.5,1246.18 2366.52,1246.51 2365.11,1247.34C2354.66,1253.56 2347.13,1263.18 2335.74,1268.7C2321.84,1275.45 2303.17,1280.12 2288.1,1287.98C2271.68,1296.54 2259.43,1308.73 2260.02,1330.03C2260.02,1330.08 2260.02,1330.13 2260.03,1330.18C2260.31,1334.43 2260.79,1341.43 2262.21,1345.43C2267.04,1359.04 2277.12,1364.13 2289.12,1365.18C2304.95,1366.57 2324.45,1360.21 2337.3,1359.83C2353.09,1359.36 2367.86,1373.02 2377.23,1384.37C2383.88,1392.43 2393.87,1402.22 2397.78,1412.03C2398.75,1414.47 2398.7,1417.15 2398.41,1419.84C2398.05,1423.15 2397.28,1426.48 2396.88,1429.55C2395.41,1440.61 2395.92,1452.73 2392.29,1463.4C2389.47,1471.71 2381.92,1475.14 2374.64,1478.99C2373.07,1479.82 2363.47,1488.86 2361.78,1490.87C2359.42,1493.67 2361.46,1496.32 2361.8,1496.65C2362.99,1497.82 2364.97,1498.86 2367.62,1499.5C2370.54,1500.21 2374.44,1500.53 2378.65,1500.49C2385.75,1500.41 2393.74,1499.34 2399.12,1497.7C2401.93,1496.84 2404.12,1495.77 2405.42,1494.69C2411.99,1489.26 2414.95,1481.33 2418.65,1473.91C2423.64,1463.91 2429.17,1453.92 2436.44,1445.37C2438.7,1442.72 2441.58,1439.75 2444.87,1437.48C2447.73,1435.51 2450.89,1434.04 2454.22,1434.16C2455.62,1434.21 2456.99,1434.88 2458.29,1435.74C2460.85,1437.42 2463.11,1439.9 2464.71,1441.9C2467.56,1445.43 2469.39,1449.76 2471.46,1453.77C2473.97,1458.62 2478.24,1465.04 2480.91,1471.69C2483.11,1477.19 2484.37,1482.86 2481.19,1487.6C2479.3,1490.41 2476.63,1491.95 2473.8,1493.27C2470.21,1494.95 2466.34,1496.28 2462.84,1498.38C2461.82,1498.99 2458.01,1501.05 2456.31,1502.65C2455.22,1503.68 2454.66,1504.77 2454.46,1505.59C2454.36,1506 2453.87,1509.93 2457.78,1510.5C2457.88,1510.52 2458.43,1510.56 2459.35,1510.61C2464.96,1510.88 2488.7,1511.74 2499.57,1510.87C2503.38,1510.56 2505.97,1509.73 2506.85,1509.07C2515.1,1502.88 2514.92,1494.7 2514.19,1485.59C2513.66,1478.93 2510.9,1467.33 2509.8,1457.02C2509.16,1451.07 2508.94,1445.6 2510.59,1442.25C2512.4,1438.59 2515.42,1436.76 2518.82,1435.67C2522.99,1434.34 2527.7,1434.04 2532.08,1433.55C2550.34,1431.48 2568.83,1430.71 2587.01,1428.19C2591.39,1427.59 2598.18,1425.75 2604.5,1424.92C2607.46,1424.53 2610.3,1424.31 2612.58,1424.74C2614.71,1428.15 2620.18,1437.05 2621.08,1438.16C2623.46,1441.1 2626.63,1443.9 2629.44,1446.95C2631.7,1449.4 2633.75,1451.98 2634.45,1455.13C2634.82,1456.82 2634.11,1458.66 2633.26,1460.44C2632.1,1462.84 2630.5,1465.09 2629.25,1466.81C2621.08,1478.05 2611.23,1483.27 2599.8,1490.41C2593.67,1494.23 2587.51,1501.25 2583.28,1507.18C2582.41,1508.4 2582.29,1510 2582.98,1511.33C2583.66,1512.67 2585.04,1513.5 2586.53,1513.5C2593.51,1513.5 2616.11,1513.76 2620.53,1513.51C2622.43,1513.4 2623.41,1512.65 2623.6,1512.5C2624.92,1511.4 2625.15,1510.11 2625.02,1508.97C2624.86,1507.51 2624.37,1505.97 2624.86,1504.54C2625.46,1502.78 2627.42,1501.59 2629.39,1500.42C2632.25,1498.71 2635.41,1497.33 2637.5,1496.07C2639.19,1495.05 2640.81,1493.93 2642.42,1492.79C2642.68,1492.61 2642.92,1492.39 2643.13,1492.15C2651.66,1482.37 2660.96,1473.25 2669.19,1463.2C2672.66,1458.96 2677.6,1454.38 2679.48,1449.13C2679.9,1447.95 2680.09,1446.61 2680.06,1445.15ZM2669.07,1435C2668.53,1433.51 2668.02,1432.02 2667.61,1430.56C2665.89,1424.54 2666.09,1419.05 2669.97,1415.41C2674.09,1411.56 2680.85,1410.31 2685.94,1408.31C2693.93,1405.19 2703.27,1401.72 2710.56,1396.4C2717.1,1391.63 2721.93,1385.32 2721.81,1376.07C2721.61,1359.99 2720.27,1342.23 2711.52,1328.33C2700.45,1310.76 2679.18,1301.57 2660.98,1293.5C2644.37,1286.14 2627.79,1278.45 2610.1,1274.09C2582.15,1267.19 2551.42,1268.25 2523.09,1272.18C2509.92,1274 2497.37,1278.47 2484.77,1282.5C2471.58,1286.72 2458.34,1290.48 2444.4,1290.68C2436.33,1290.8 2419.33,1290.26 2406.82,1287.25C2400.84,1285.81 2395.84,1283.73 2392.87,1281.11C2388.62,1277.36 2386.08,1272.29 2383.46,1267.29C2381.38,1263.32 2379.28,1259.38 2375.35,1256.81C2374.4,1256.19 2372.28,1255.11 2370.3,1254.6C2369.87,1254.49 2369.17,1254.42 2368.91,1254.39C2358.41,1260.72 2350.73,1270.33 2339.24,1275.9C2325.4,1282.62 2306.8,1287.25 2291.8,1295.07C2278.15,1302.19 2267.55,1312.05 2268.01,1329.72C2268.26,1333.37 2268.54,1339.34 2269.75,1342.76C2274.31,1355.61 2285.36,1357.9 2297.36,1357.31C2311.22,1356.62 2326.43,1352.15 2337.06,1351.83C2355.21,1351.29 2372.63,1366.24 2383.4,1379.28C2390.53,1387.91 2401.03,1398.56 2405.21,1409.07C2407.88,1415.77 2405.71,1423.78 2404.81,1430.6C2403.27,1442.17 2403.66,1454.82 2399.87,1465.97C2396.34,1476.35 2387.48,1481.26 2378.38,1486.06C2377.65,1486.45 2374.47,1489.51 2371.8,1492.14C2373.8,1492.41 2376.12,1492.51 2378.57,1492.49C2384.02,1492.43 2390.05,1491.73 2394.7,1490.61C2397.22,1490 2399.29,1489.38 2400.32,1488.53C2406.02,1483.82 2408.28,1476.77 2411.49,1470.34C2416.77,1459.76 2422.66,1449.22 2430.35,1440.19C2435.98,1433.58 2444.98,1425.83 2454.5,1426.16C2457.29,1426.26 2460.1,1427.36 2462.69,1429.06C2465.96,1431.21 2468.89,1434.33 2470.94,1436.88C2474.13,1440.83 2476.26,1445.62 2478.57,1450.1C2481.73,1456.23 2487.49,1464.76 2489.88,1473.2C2491.76,1479.82 2491.65,1486.38 2487.83,1492.06C2485.07,1496.17 2481.32,1498.59 2477.19,1500.52C2475.29,1501.41 2473.3,1502.18 2471.35,1503.03C2478.69,1503.23 2487.76,1503.37 2494.55,1503.13C2497.99,1503.01 2501.66,1502.52 2502.38,1502.42C2507.69,1498.16 2506.71,1492.39 2506.22,1486.23C2505.69,1479.62 2502.93,1468.1 2501.84,1457.87C2501.02,1450.13 2501.27,1443.06 2503.42,1438.71C2506.3,1432.88 2510.96,1429.78 2516.38,1428.05C2521.04,1426.56 2526.29,1426.15 2531.18,1425.6C2549.37,1423.54 2567.79,1422.77 2585.92,1420.27C2590.31,1419.66 2597.12,1417.82 2603.45,1416.99C2605.23,1416.75 2606.98,1416.6 2608.64,1416.56C2607.45,1412.28 2607.24,1407.79 2608.36,1403.49C2609.89,1397.64 2613.56,1392.24 2620.25,1388.67C2615.17,1393.26 2612.99,1398.67 2612.85,1404.13C2612.78,1406.89 2613.41,1409.55 2614.36,1412.13C2615.26,1414.61 2616.64,1416.9 2618.36,1418.94C2618.42,1419.03 2618.47,1419.11 2618.53,1419.19C2618.6,1419.29 2618.67,1419.39 2618.74,1419.5C2620.06,1421.59 2626.34,1431.95 2627.3,1433.12C2629.57,1435.93 2632.63,1438.61 2635.32,1441.52C2638.56,1445.03 2641.26,1448.89 2642.26,1453.4C2642.86,1456.13 2642.41,1459.11 2641.28,1462.03C2639.91,1465.56 2637.53,1469.01 2635.72,1471.51C2626.9,1483.66 2616.4,1489.47 2604.03,1497.19C2600.8,1499.21 2597.59,1502.29 2594.74,1505.55L2594.74,1505.55C2602.04,1505.6 2611.46,1505.66 2616.74,1505.6C2616.75,1504.37 2616.88,1503.14 2617.29,1501.95C2618.24,1499.18 2620.5,1496.74 2623.42,1494.75C2626.69,1492.5 2630.81,1490.76 2633.36,1489.22C2634.75,1488.38 2636.09,1487.46 2637.42,1486.53C2645.8,1476.94 2654.92,1467.99 2663,1458.13C2665.93,1454.55 2670.36,1450.87 2671.95,1446.44C2672.49,1444.91 2671.78,1442.91 2671.06,1440.68C2670.52,1438.97 2669.85,1437.19 2669.21,1435.39C2669.15,1435.27 2669.11,1435.13 2669.07,1435ZM2715.53,1402.68C2715.44,1402.74 2715.36,1402.8 2715.28,1402.86C2707.44,1408.58 2697.44,1412.41 2688.85,1415.76C2686.48,1416.69 2683.69,1417.41 2681.02,1418.33C2678.95,1419.05 2676.93,1419.86 2675.44,1421.26C2674.56,1422.08 2674.47,1423.23 2674.54,1424.46C2674.68,1426.61 2675.43,1428.99 2676.27,1431.4C2681.56,1435.58 2685.81,1440.26 2691.62,1443.84C2694.24,1445.46 2697.2,1446.45 2700.09,1447.57C2703.62,1448.94 2707.06,1450.48 2710,1452.94C2713.54,1455.92 2715.65,1460.48 2716.57,1465.62C2717.79,1472.44 2716.94,1480.27 2715.55,1485.69C2713.95,1491.96 2708.26,1494.42 2702.5,1495.75C2695.83,1497.29 2688.21,1497.8 2682.07,1500.99C2681.16,1501.45 2679.43,1502.34 2677.84,1503.45C2677.76,1503.51 2677.67,1503.57 2677.59,1503.64L2677.86,1503.66C2682.55,1504.11 2687.38,1503.94 2692.1,1503.87C2698.22,1503.79 2704.34,1503.77 2710.47,1503.76C2713.42,1503.75 2716.93,1504.17 2719.52,1502.48C2722.61,1500.46 2724.11,1497.25 2725.71,1494.03C2727.29,1490.83 2728.5,1487.44 2729.73,1484.1C2733.61,1473.55 2735.06,1462.52 2737.52,1451.65C2738.11,1449.04 2739.04,1446.21 2739.59,1443.38C2740.03,1441.17 2740.26,1438.96 2739.59,1436.88C2738.49,1433.45 2735.86,1430.66 2733.84,1427.76C2728.39,1419.9 2720.41,1411.53 2715.53,1402.68Z"/></g></g></svg>