<svg width="187" height="99" viewBox="0 0 187 99" fill="none" xmlns="http://www.w3.org/2000/svg">
<path d="M168.527 19.3854L161.891 14.4245L154.127 11.4361C148.664 10.0577 142.898 10.5253 137.728 12.766C132.46 15.0108 128.238 19.1679 125.911 24.4005C124.012 29.456 123.885 35.0066 125.552 40.1433C127.272 45.8291 130.5 50.9427 134.894 54.9407C139.129 58.771 144.553 61.0278 150.256 61.3321C160.817 62.0136 174.399 56.8668 177.525 45.7595C179.11 40.1668 177.123 34.169 174.773 29.0809C172.5 24.1586 169.216 18.7255 164.119 16.3212L160.392 15.4401L160.198 16.49L166.278 20.8255L170.654 26.9436C173.046 31.363 175.233 36.6215 175.14 41.7589C174.969 52.433 162.868 58.1592 153.572 58.6856C148.728 59.0443 143.891 57.9145 139.707 55.4473C135.005 52.361 131.315 47.9589 129.098 42.7898C126.984 38.3706 126.302 33.4017 127.147 28.5763C127.695 26.1153 128.728 23.788 130.185 21.7302C131.642 19.6723 133.494 17.9251 135.633 16.5902C140.015 13.789 145.194 12.5021 150.377 12.9266L157.739 14.4842L164.714 17.6452L168.112 19.8601L168.494 19.3717L168.527 19.3854Z" fill="#4F0FFF"/>
<path d="M162.874 22.5768L158.426 17.6546L152.047 15.4793C147.458 14.788 142.768 15.3099 138.443 16.9929C134.248 18.6283 130.283 21.3159 128.121 25.3792C125.778 29.8183 126.337 35.045 128.166 39.5435C130.085 44.2071 133.174 48.2965 137.137 51.416C141.099 54.5356 145.799 56.5798 150.783 57.3507C155.613 58.0714 160.547 57.2359 164.871 54.9652C168.981 52.6726 172.036 48.8684 173.387 44.3601C175.023 38.878 172.996 32.8222 170.217 28.0619C167.437 23.3017 162.913 18.6602 157.41 17.1355L156.811 18.979C160.814 21.1144 164.264 24.1533 166.887 27.8546C169.389 31.5464 171.372 36.2546 171.158 40.8215C171.004 42.8231 170.441 44.7718 169.504 46.5474C168.568 48.323 167.277 49.8877 165.712 51.1451C162.343 53.7915 158.155 55.1775 153.871 55.0637C144.949 55.0713 136.526 49.7027 131.952 42.1355C129.64 38.3146 127.973 33.5374 129.031 29.0389C129.971 25.0793 132.983 22.1078 136.426 20.1842C140.543 17.9871 145.174 16.9343 149.835 17.1355L156.7 18.6193L162.399 22.8745L162.813 22.5939L162.874 22.5768Z" fill="#4F0FFF"/>
<path d="M128.918 47.2126L123.087 49.6427L124.575 55.955L130.924 58.4413L136.597 54.3177L134.281 53.2177L126.43 54.6982L124.905 50.5246L129.014 48.4766L128.918 47.2126Z" fill="#4F0FFF"/>
<path d="M122.067 51.8081L112.085 55.7956C108.866 57.5624 105.768 59.5413 102.811 61.7192L94.7373 67.8804L90.9822 74.05L95.2172 79.0681L103.516 77.3567C110.469 74.4998 117.085 70.8826 123.242 66.5711L129.656 58.8168L124.727 53.7014L123.836 55.0423L125.03 58.4252L126.319 57.9743L125.764 54.3757L124.856 55.7279L126.584 59.6309L120.758 64.8845C115.554 68.6012 109.989 71.783 104.145 74.3814L96.9079 76.7503L93.5073 73.8364L96.889 69.2367L104.182 63.6529L112.762 57.9704L117.427 55.4966L122.384 53.345L122.069 51.7581L122.067 51.8081Z" fill="#4F0FFF"/>
<path d="M120.581 55.9441L122.303 58.7516L124.043 61.3537L125.491 60.3718L123.719 57.7921L121.749 55.153L120.581 55.9441Z" fill="#4F0FFF"/>
<path d="M118.912 60.6274L120.282 63.1658L122.173 65.2065L123.418 64.0846L121.92 61.8745L119.872 59.9765L118.912 60.6274Z" fill="#4F0FFF"/>
<path d="M115.872 62.8808L117.5 65.6918L119.393 67.6465L120.295 67.0349L119.189 64.5472L117.164 62.0055L115.872 62.8808Z" fill="#4F0FFF"/>
<path d="M113.119 64.4692L116.459 68.7536L117.333 67.4239L115.931 65.8371L114.613 63.964L113.119 64.4692Z" fill="#4F0FFF"/>
<path d="M110.463 67.4655L113.396 70.1888L111.953 66.4556L110.463 67.4655Z" fill="#4F0FFF"/>
<path d="M106.116 68.8054L106.432 71.5877L108.529 73.1137L109.079 72.4632L108.343 70.8963L107.484 68.8809L106.116 68.8054Z" fill="#4F0FFF"/>
<path d="M102.322 72.0658L103.93 74.5275L105.535 75.0948L105.67 73.5295L103.903 70.9941L102.322 72.0658Z" fill="#4F0FFF"/>
<path d="M99.8471 73.7436L101.33 76.1452L102.961 75.0399L101.279 72.7729L99.8471 73.7436Z" fill="#4F0FFF"/>
<path d="M97.0949 76.5271L97.4109 76.8686L98.3019 76.9533L97.9824 76.892L98.0215 76.9139L98.5098 76.5828L98.5039 76.5385L98.4426 76.8579L98.6939 75.999L98.4855 75.5845L97.9529 75.2086L97.3189 75.3605L96.9595 75.8819L97.0949 76.5271Z" fill="#4F0FFF"/>
<path d="M102.487 32.2664C102.107 33.23 101.694 34.6729 100.519 34.9134C99.1608 35.1835 97.6276 34.5887 96.3802 34.1367C93.2331 33.0387 90.0167 31.6612 86.6226 32.1354C82.6751 32.6985 79.9133 36.4135 78.3027 39.7345C77.8234 40.687 77.5697 42.4094 76.7042 43.1273C75.5988 44.0095 71.9907 42.3566 70.9256 41.8949C69.3053 41.1796 68.0082 39.8264 66.5129 38.8937C64.7843 37.801 62.7285 37.346 60.7002 37.6071C56.0968 38.0965 53.3508 41.5819 51.4855 45.468C50.7117 47.3434 49.775 49.1474 48.6864 50.8594C47.0472 53.181 43.9754 53.7417 41.2934 53.4305C37.1892 52.9697 33.3976 50.5314 29.5273 49.2415C23.4914 47.165 16.2975 46.5283 10.1771 48.6084C3.57737 50.8359 0.556831 56.7659 1.55288 63.489C1.60674 63.8219 1.78695 64.1213 2.05597 64.3247C2.32499 64.5281 2.6621 64.6199 2.99711 64.581C3.33213 64.5422 3.63923 64.3756 3.8545 64.1159C4.06978 63.8563 4.17663 63.5236 4.1528 63.1872C3.81131 59.5967 4.51547 56.1035 7.46226 53.7878C10.0134 51.7699 13.5478 51.2107 16.6975 51.0311C20.1591 50.866 23.6234 51.2959 26.9397 52.3019C30.7472 53.4338 34.2367 55.4256 38.0331 56.5663C42.5923 57.9939 48.1543 57.3908 51.3425 53.5525C53.9844 50.3674 54.4912 45.6747 57.5766 42.8413C58.3567 42.1251 59.3096 41.624 60.3417 41.3871C61.3739 41.1501 62.4499 41.1855 63.4642 41.4898C65.2249 42.1202 66.609 43.6844 68.1395 44.6613C70.9027 46.4004 76.2619 48.411 79.1955 46.0335C81.4869 44.1776 81.8402 40.4034 83.5325 38.0576C85.7203 35.063 88.6056 35.2662 91.8345 36.3533C94.5876 37.2863 97.3577 38.7848 100.324 38.8059C103.622 38.824 105.627 36.3825 106.419 33.4526C107.069 31.1608 103.296 30.083 102.443 32.3017L102.487 32.2664Z" fill="#4F0FFF"/>
</svg>
