<svg width="229" height="50" viewBox="0 0 229 50" fill="none" xmlns="http://www.w3.org/2000/svg">
<path d="M212.754 4.27734C207.429 7.94786 200.471 6.90017 194.402 7.61549C191.128 7.91547 187.975 9.00113 185.211 10.7802C181.981 12.9479 178.947 15.5201 175.818 17.8973C172.538 20.4334 169.25 22.9551 165.999 25.4551L164.012 29.2629L167.87 30.2167C173.65 29.6097 177.697 24.6458 183.296 23.5114L189.395 23.786H195.175C198.861 23.1383 202.228 21.2857 204.749 18.5187L203.564 17.2831C201.492 19.6255 198.762 21.2898 195.731 22.0591L190.984 22.4132L185.514 21.8062C179.734 21.669 175.616 26.0837 170.507 28.0129L166.786 28.7354L165.341 28.2947L167.191 26.4738C170.305 24.0967 173.397 21.7485 176.49 19.3785C179.582 17.0086 182.473 14.6314 185.594 12.4493C188.163 10.7052 191.12 9.61619 194.207 9.27733C200.659 8.48253 207.884 9.58802 213.571 5.66461L212.754 4.27734Z" fill="#4F0FFF"/>
<path d="M188.665 23.6488L194.214 29.5231C195.26 32.0909 195.307 34.9574 194.344 37.5577L195.673 38.1069C198.21 32.3988 194.9 24.8048 189.048 22.7095L188.665 23.6488Z" fill="#4F0FFF"/>
<path d="M189.214 34.0534L189.575 34.6025L190.291 35.4046L191.201 37.1676L191.476 39.104L191.15 41.1199L192.278 41.6112L192.552 36.7846L191.367 34.6893L190.486 33.8295L189.546 33.4971L189.214 34.0534Z" fill="#4F0FFF"/>
<path d="M184.163 36.3148L186.454 40.0431L186.815 42.1095L186.952 44.2338L187.978 44.3711L188.39 42.0228L187.812 39.4289L184.77 35.5127L184.163 36.3148Z" fill="#4F0FFF"/>
<path d="M179.561 38.7139L181.598 42.4712L181.822 44.5376L181.656 46.6908L182.87 46.9943L183.007 41.9726L180.218 37.8613L179.561 38.7139Z" fill="#4F0FFF"/>
<path d="M193.578 38.6562L191.75 40.6505L189.763 41.9727L190.016 42.6302L194.214 39.0175L193.578 38.6562Z" fill="#4F0FFF"/>
<path d="M189.048 41.9727L187.342 43.7935L185.327 44.8122L185.384 45.3397L188.108 44.7039L189.792 42.2762L189.048 41.9727Z" fill="#4F0FFF"/>
<path d="M184.604 44.7617L183.173 45.9467L181.541 46.2502L181.432 47.0449L183.643 46.8282L185.269 45.1446L184.604 44.7617Z" fill="#4F0FFF"/>
<path d="M161.815 41.8857C164.427 38.662 168.041 36.4016 172.082 35.4623L171.36 34.7398C171.01 36.5229 170.26 38.2031 169.164 39.6528C168.069 41.1026 166.657 42.2838 165.038 43.1068L165.724 44.2918C167.474 43.3654 168.992 42.0546 170.163 40.4579C171.334 38.8611 172.129 37.0198 172.487 35.0722L171.764 34.3496C167.542 35.3932 163.785 37.8103 161.085 41.221L161.808 41.9435L161.815 41.8857Z" fill="#4F0FFF"/>
<path d="M171.692 39.075L174.647 38.3019L173.961 37.6083L172.22 42.3048L170.536 44.1256L168.853 45.7224L169.156 46.2499L171.497 45.2239L173.376 43.1068L175.059 37.7744L174.228 37.2759L171.447 38.497L171.692 39.075Z" fill="#4F0FFF"/>
<path d="M174.98 42.0014L175.97 41.9147L176.331 43.0779L175.168 45.5563L173.354 47.3265L171.223 48.7571L171.526 49.5591L175.059 47.8467L177.321 44.5374L176.714 41.062L174.207 41.5317L174.98 42.0014Z" fill="#4F0FFF"/>
<path d="M162.588 41.25L160.63 45.1734L162.285 46.9075L164.662 46.8569L164.467 46.1127L163 45.8888L161.757 44.7832L162.863 41.8858L162.588 41.25Z" fill="#4F0FFF"/>
<path d="M165.594 46.9073L167.444 49.0316L170.067 49.7542L170.146 49.0605L169.098 48.6992L168.08 48.179L166.425 46.416L165.594 46.9073Z" fill="#4F0FFF"/>
<path d="M172.603 50.0002L178.73 49.4221L181.324 47.9048L183.087 45.5276L182.675 45.2241L180.608 46.886L178.289 48.3455L172.689 49.3643L172.603 50.0002Z" fill="#4F0FFF"/>
<path d="M197.408 36.0691L202.624 32.3408L207.068 27.0445C210.496 23.6136 214.567 20.893 219.048 19.0387L218.463 17.6587C213.938 19.3503 209.84 22.0169 206.461 25.4694L202.046 30.8234L199.756 33.309L197.025 35.2093L197.408 36.0691Z" fill="#4F0FFF"/>
<path d="M207.87 8.3093L209.163 8.85844L210.601 9.63152L212.393 12.0304L212.342 14.8772L210.572 17.3555L211.533 18.5983L213.802 11.6474L211.533 8.61276L209.77 7.75293L207.87 7.86852V8.3093Z" fill="#4F0FFF"/>
<path d="M208.809 8.44657L209.662 9.16911L210.327 10.8815L211.179 14.1907V21.3656L212.697 21.7775C213.269 18.5698 213.091 15.2733 212.176 12.146L211.345 9.83384L210.406 8.14307H208.116L208.838 8.44657H208.809Z" fill="#4F0FFF"/>
<path d="M209.908 8.2801L212.032 14.9853L212.147 18.4319L211.62 21.9362L212.942 22.5214L213.549 14.8986C213.178 12.3446 212.185 9.92068 210.659 7.83936L209.936 8.2801H209.908Z" fill="#4F0FFF"/>
<path d="M210.189 8.25162L211.295 11.5681L211.981 15.1808L211.873 18.8513L211.512 20.6433L211.345 22.3557L212.256 22.7097L213.528 19.2054L213.549 15.0652L212.639 11.2068L210.681 7.97705L210.189 8.25162Z" fill="#4F0FFF"/>
<path d="M211.071 7.58646L212.834 14.5734L212.697 18.1283L212.314 19.9275L211.981 21.6905L213.058 22.1313L214.301 18.5691L214.467 14.5734C214.31 11.9345 213.419 9.39191 211.895 7.23242L211.071 7.58646Z" fill="#4F0FFF"/>
<path d="M211.728 5.93191L214.048 12.6154L214.272 16.062L214.127 17.8033L214.077 18.7137L214.301 19.5085L215.153 19.6241L215.652 18.9305L215.868 17.9117L215.984 16.062L215.623 12.1675L212.473 5.38281L211.728 5.93191Z" fill="#4F0FFF"/>
<path d="M213.441 6.92897L214.799 12.6443L214.85 16.1414L214.713 19.9275L216.201 20.1154L216.504 15.4839L216.23 10.7657L215.399 6.9579L213.058 6.01855L213.441 6.92897Z" fill="#4F0FFF"/>
<path d="M213.166 6.09855C215.334 10.2893 216.533 14.928 215.818 19.6462L217.581 19.8991C218.217 14.8413 217.111 9.49448 213.968 5.44824L213.137 6.08408L213.166 6.09855Z" fill="#4F0FFF"/>
<path d="M213.246 6.53908L216.533 12.529L217.169 15.896L217.003 19.3498L218.6 19.5376L218.824 15.7876L218.022 12.0087L213.853 5.93213L213.246 6.53908Z" fill="#4F0FFF"/>
<path d="M206.049 9.19096L208.752 13.9381C209.358 16.532 209.908 19.1765 210.71 21.6909L212.256 21.2791C211.649 18.295 210.767 15.347 209.908 12.4424L206.165 8.19385L206.056 9.19096H206.049Z" fill="#4F0FFF"/>
<path d="M207.48 8.94533L210.211 15.3471L210.601 18.7358L210.543 20.4482L210.934 21.8861L211.454 21.9366L212.148 20.5566L212.198 18.7358L211.649 14.928L208.282 8.33838L207.48 8.94533Z" fill="#4F0FFF"/>
<path d="M209.467 8.94526L210.601 14.74L210.955 17.6591L211.454 20.253H212.176L212.451 17.5507L212.061 14.4872L210.269 8.58398L209.467 8.94526Z" fill="#4F0FFF"/>
<path d="M208.087 9.19061L210.348 8.05621L212.198 6.73399L211.699 5.88135L209.604 6.79176L207.48 8.14291L208.087 9.19061Z" fill="#4F0FFF"/>
<path d="M209.691 8.85846L212.118 8.1648L213.636 7.14599L212.863 6.84253L211.316 8.3599L210.377 9.11133L209.279 9.71105V10.6792L211.62 9.85552L213.686 9.08244V8.52607L211.237 8.47549L208.809 9.85552L209.633 10.1807L210.514 9.27027L211.454 8.55496L213.361 7.44949L213.441 6.68359L211.562 6.79195L209.358 7.58677L209.691 8.85846Z" fill="#4F0FFF"/>
<path d="M211.728 11.0406L214.987 9.43655L214.38 8.82959L213.137 9.49432L211.728 9.90617V11.0406Z" fill="#4F0FFF"/>
<path d="M213.527 10.5708L212.668 11.539L213.058 11.9508L213.715 11.8424L213.527 11.1199L213.578 11.1488L213.715 11.2861L213.744 11.3728V11.3439L213.773 11.4812V11.4234L213.744 11.5679L213.773 11.4812L213.715 11.6474L213.773 11.4017V11.1199L213.802 11.2861V11.2066L213.773 11.3439L213.802 11.2861L213.744 11.4234L213.686 11.4812L213.607 11.539L213.499 11.5896H213.527L213.39 11.6185L213.91 11.1488L213.527 10.5708Z" fill="#4F0FFF"/>
<path d="M194.814 27.3483L195.811 25.8021L196.526 24.3642L195.948 24.0391L195.038 25.3324L194.098 26.9292L194.814 27.3483Z" fill="#4F0FFF"/>
<path d="M161.786 41.1995L161.923 41.0911L162.256 40.3397L159.965 34.6316L156.129 29.8267L154.806 31.1562L158.448 35.542L160.934 40.7009L161.598 41.1995H161.786Z" fill="#4F0FFF"/>
<path d="M177.986 17.4133L177.957 17.305L177.437 16.7775L171.916 15.065L166.483 13.1069L165.789 14.7616L171.338 16.7269L177.046 18.1864L177.762 17.9913L177.986 17.4133Z" fill="#4F0FFF"/>
<path d="M165.544 14.4291L166.757 13.9956L166.974 13.1357L164.684 14.075L162.559 15.5635L158.694 19.2051L155.609 23.5693L154.445 25.8525L153.954 27.0447L153.867 28.338L154.59 28.5331L155.305 27.6227L155.804 26.4089L156.931 24.2268L159.886 20.0866L163.419 16.6401L165.544 15.1227L167.278 13.6921L166.447 13.4392L165.457 14.2701L165.544 14.4291Z" fill="#4F0FFF"/>
<path d="M164.98 14.4293L160.818 10.542C157.863 10.766 155.63 13.3816 153.593 15.2602L149.893 18.6562L146.916 21.7125L147.639 28.3672L151.721 30.0507H154.286L156.772 29.227L156.685 28.5912L155.059 28.4249L153.015 28.5912L149.655 27.9264L148.022 22.9914L150.233 20.5565L153.318 17.7747L156.309 15.0435L159.091 12.8325L162.212 12.3917L163.918 14.4293H164.98Z" fill="#4F0FFF"/>
<path d="M158.289 15.8164L156.764 19.1257L159.279 18.5982L159.857 17.2471L158.975 15.867L158.087 16.5606L158.231 17.1676L158.087 17.5794L157.4 17.9624L158.087 16.5028L158.289 15.8164Z" fill="#4F0FFF"/>
<path d="M161.266 11.1198L155.413 7.36983L152.27 5.96086L148.903 4.77588L148.188 6.4883L151.41 7.64435L154.474 8.97385L160.493 12.1169L161.266 11.1198Z" fill="#4F0FFF"/>
<path d="M145.948 23.9812L142.473 21.8858L140.789 20.9465L139.85 20.4191L139.438 20.1734L138.361 20.5564L139.467 20.9971L138.751 19.1763L138 21.3872L139.633 22.4061L141.288 23.3164L145.175 25.3034L145.948 23.9812Z" fill="#4F0FFF"/>
<path d="M156.244 29.3353L156.902 28.3671L157.4 27.3194L158.34 25.4119L160.905 21.5535L164.055 18.3526L165.847 16.9726L167.581 15.5636L167.061 14.6821L164.958 15.7009L163.116 17.1387L159.799 20.6142L157.292 24.5304L156.353 26.6546L155.962 27.8685L155.912 29.198L156.244 29.3353Z" fill="#4F0FFF"/>
<path d="M161.62 38.0562L164.272 35.7874L165.594 35.3467L166.172 36.0909L167.061 36.4522L165.153 34.1328L161.345 37.0302L161.62 38.0562Z" fill="#4F0FFF"/>
<path d="M212.364 6.92916L212.198 6.18497L211.981 6.48842L216.613 3.6416L218.882 2.34827L221.035 0.859828L220.558 0L217.249 1.60402L213.968 3.75723L212.502 4.80489L211.237 5.9104L212.314 7.14592L212.364 6.92916Z" fill="#4F0FFF"/>
<path d="M215.182 21.3872L222.22 19.2051L225.753 18.3814L227.516 18.0491L228.925 17.3843L228.838 16.7268L227.241 16.5317L225.471 16.9147L221.83 17.8829L214.908 20.6936L215.182 21.3872Z" fill="#4F0FFF"/>
<path d="M94.1495 23.5715C98.9695 25.0615 102.86 30.2116 101.37 35.4316C100.37 38.7216 96.1896 39.8416 93.1896 39.5316C90.1896 39.2216 88.5496 36.6816 87.9496 34.0216C87.5818 32.0586 87.6605 30.038 88.1798 28.1096C88.6992 26.1812 89.6458 24.3944 90.9496 22.8815C92.0403 23.021 93.1174 23.2518 94.1695 23.5715H94.1495ZM29.7395 28.0416C28.7598 25.9859 28.2475 23.7387 28.2395 21.4616C28.1195 17.6616 29.1395 11.9415 33.4395 10.7615C35.5095 10.1915 37.8695 11.1016 39.5695 12.2316C41.9995 13.8416 42.5695 16.8915 42.0295 19.5715C41.0295 24.8715 36.2795 28.4816 31.3495 30.2916C30.7203 29.6123 30.1794 28.8563 29.7395 28.0416ZM137.74 12.9415C126.55 10.4215 113.98 10.4216 102.96 13.7416C98.2995 15.1416 93.5995 17.4116 90.3095 21.0816C89.2424 20.9856 88.1707 20.9489 87.0995 20.9716C82.1757 21.1029 77.3194 22.1508 72.7795 24.0615C70.2895 25.0615 67.9595 26.5316 65.5795 27.7916C62.4763 29.4607 59.2812 30.9531 56.0095 32.2615C49.8295 34.6915 42.4695 36.5016 36.1095 33.6616C34.8446 33.1003 33.6634 32.3667 32.5995 31.4816C38.1295 29.3116 42.9795 24.8216 43.7595 18.7316C44.4595 13.1716 39.4295 8.45159 33.9295 9.05159C29.6495 9.52159 27.5595 13.8216 26.9295 17.6016C26.1995 21.7516 26.6595 26.7615 29.1895 30.2615C29.3395 30.4615 29.4895 30.6616 29.6495 30.8516C29.2895 30.9516 28.9395 31.0515 28.5895 31.1315C22.7356 32.3611 16.6356 31.4902 11.3595 28.6716C6.28838 25.7835 2.54046 21.035 0.909522 15.4316C0.729522 14.8716 -0.140463 15.0916 0.0195374 15.6616C0.856376 18.7047 2.28986 21.551 4.23664 24.0352C6.18342 26.5193 8.60466 28.5916 11.3595 30.1315C17.2905 33.2388 24.1869 33.9545 30.6295 32.1315H30.7495C34.5695 35.8215 40.2095 37.1316 45.4295 36.7316C52.2095 36.1916 58.6595 33.2916 64.6495 30.2416C69.4195 27.8216 73.7995 25.1616 79.0295 23.8416C82.2877 22.9674 85.6584 22.5865 89.0295 22.7116C86.1995 26.7116 85.1095 32.0916 87.0995 36.7116C89.4495 42.1716 96.6596 42.3915 100.89 39.0615C105.12 35.7315 103.3 28.5615 100.06 25.1315C97.9684 23.0714 95.2676 21.7421 92.3595 21.3416L92.7495 20.9616C96.4295 17.5516 101.41 15.7315 106.2 14.5715C116.441 12.2365 127.078 12.2365 137.32 14.5715C138.38 14.8115 138.86 13.2016 137.8 12.9616L137.74 12.9415Z" fill="#4F0FFF"/>
</svg>
