<svg width="182" height="95" viewBox="0 0 182 95" fill="none" xmlns="http://www.w3.org/2000/svg">
<path d="M136.908 57.2404L130.538 53.0604L125.608 47.4404C122.808 43.1494 121.187 38.1967 120.908 33.0804C120.338 21.8204 127.248 11.9904 136.908 6.77038C147.338 1.16038 161.908 0.570376 170.978 9.02038C175.27 13.0413 178.087 18.3871 178.978 24.2004C179.786 30.4735 178.555 36.8401 175.468 42.3604L169.668 50.0204L162.908 56.6504L159.598 64.1504L157.078 70.6604L154.628 72.4604L155.468 74.4604C161.008 73.3004 161.468 66.0804 163.038 61.7404L168.838 54.3704L175.748 46.7904C179.667 41.1897 181.762 34.5161 181.748 27.6804C181.602 21.281 179.376 15.1031 175.408 10.0804C171.137 4.78102 165.001 1.31452 158.258 0.390371C151.953 -0.542084 145.514 0.202919 139.588 2.55037C128.398 7.00037 119.268 16.8304 118.118 29.1504C117.118 40.1504 122.518 52.1504 132.558 57.2804L136.338 58.6104L136.948 57.2204L136.908 57.2404Z" fill="#4F0FFF"/>
<path d="M134.848 58.2703L138.668 67.0903C139.128 69.8203 140.998 74.6903 144.668 73.8503V72.0203L142.798 71.0803L141.498 69.1703L140.308 64.1703L135.048 57.2603L134.888 58.2603L134.848 58.2703Z" fill="#4F0FFF"/>
<path d="M144.968 73.6802L146.388 73.9302L147.838 73.8702L151.118 73.5602L157.308 72.4802L158.028 71.7502L157.768 70.7402L156.768 70.4702L150.848 71.6402L147.908 72.0602L146.388 72.2502L144.968 72.6502V73.6802Z" fill="#4F0FFF"/>
<path d="M143.398 74.3301L142.868 73.3301L141.758 72.4801V80.1501L144.128 84.4801L150.128 84.2001L157.568 83.3601L158.718 81.8701L157.418 75.9501L157.688 69.9501L155.468 69.6602C154.38 73.9436 154.731 78.4662 156.468 82.5302L157.268 81.1002L151.158 81.9702L145.548 82.6602L143.938 82.0901L143.748 79.0302L143.558 72.4801L142.258 71.7202L143.678 74.8102L143.438 74.3202L143.398 74.3301Z" fill="#4F0FFF"/>
<path d="M157.338 75.6803L161.468 74.7303L160.398 73.9103L160.278 75.5303L160.208 76.9803L161.658 76.6003L159.168 75.7603L157.498 77.1203L159.328 79.2003L159.138 77.7503L159.288 77.9903L159.448 77.8603L160.588 78.4503L162.148 77.2503L162.078 75.5303L162.118 73.9103L161.008 73.0903L157.038 74.5203L157.338 75.6803Z" fill="#4F0FFF"/>
<path d="M141.988 77.5206L137.218 77.0806L136.068 80.2706L139.888 81.3506L143.168 80.6106L145.578 79.4606L145.348 78.6806L142.298 78.8306L138.518 79.7306L137.638 79.3706L138.058 78.4706L141.538 78.6406L141.988 77.5206Z" fill="#4F0FFF"/>
<path d="M147.298 86.0004L146.878 85.3804L146.578 85.2704L146.388 85.3104L145.308 85.7504V88.4004L148.028 88.3204L149.628 86.2604L148.558 83.6504L147.408 84.2904L147.228 86.0004L146.078 86.6304L146.958 87.1404L146.998 86.7204L146.918 85.6304L146.798 86.4504L146.418 86.5104L147.298 86.0004Z" fill="#4F0FFF"/>
<path d="M151.118 84.3905L153.028 87.3705L155.318 86.6305L155.548 85.1205L155.428 83.7605L154.398 82.9805L153.368 83.7605L153.028 86.0105L153.368 85.1505L153.488 85.0805L153.448 85.1005H153.408H153.328L153.028 85.0005L152.948 84.9605L152.878 84.6405L151.118 84.3905Z" fill="#4F0FFF"/>
<path d="M146.348 74.9806L147.348 70.4506L147.918 65.3206L148.918 55.2106L149.838 51.2106L151.018 50.7406L151.558 52.3606L151.748 62.4406C151.748 66.2606 151.478 70.0606 151.138 73.8406H153.308C153.658 69.9306 153.888 65.9906 153.958 62.0606V55.9906L153.848 53.3106L153.618 50.5806L150.528 48.3506L147.208 50.8106L146.328 55.9506L145.788 61.8506L145.218 68.5106L144.948 71.9506L145.258 74.9506L146.348 74.9806Z" fill="#4F0FFF"/>
<path d="M150.008 52.0802L149.748 51.1502L149.208 50.0402L148.488 47.6702L149.018 42.8402L147.598 41.4302L146.728 39.6302L149.668 38.4302L152.448 39.7302L151.268 41.1802L149.708 42.3802L150.198 51.4702H152.298L151.768 41.8302L150.198 43.0302L154.668 40.3002L149.938 36.2002L144.278 39.5202L148.218 43.6602L146.768 42.2302L146.458 48.2302L147.568 50.8402L148.488 52.0102L148.978 52.1802L149.518 52.6002L150.008 52.0802Z" fill="#4F0FFF"/>
<path d="M145.998 54.1503V52.3703L144.998 50.0003L143.198 45.7503L140.138 36.5803L138.878 35.6403L135.408 35.4303L136.508 36.0603L136.018 34.3303L136.208 34.1903V34.0603L137.848 32.7803L137.698 29.9503L140.488 31.3903L142.248 30.6603V28.4403L144.308 29.5703L144.838 28.6903L143.458 28.8103L143.848 30.2003L146.668 27.0303L148.048 27.5103L147.698 28.4303L148.388 29.4303L151.598 26.7003L151.788 29.0903L153.088 30.3803L155.758 27.7903L156.978 28.5503L156.138 29.5503L157.058 31.1303L159.428 29.6203L158.428 29.3603L157.818 32.1103L159.318 33.2703L161.978 32.1403L161.528 31.0203C160.614 34.9781 159.387 38.857 157.858 42.6203C156.26 46.3794 154.465 50.0513 152.478 53.6203L154.158 54.6203C156.348 51.087 158.19 47.3495 159.658 43.4603C161.184 39.5727 162.446 35.587 163.438 31.5303L162.978 30.4003L157.368 32.7003L158.858 33.8403L159.858 27.8403L158.858 27.5703L155.388 29.8003L156.108 31.6003L158.828 29.4403L157.378 26.1503L150.998 29.7903L152.298 31.0903L152.678 25.0903L146.388 29.4403L147.388 30.4403L148.688 25.5403L144.828 25.6103L142.028 29.1503L142.368 30.5403L145.808 30.4503L146.308 29.5503L141.228 26.4603L140.728 32.1103L142.488 31.3703L136.488 27.9903L136.608 34.7103L138.288 33.4303L134.768 32.2203L134.278 37.3003L135.348 37.9303L138.818 38.1603L137.598 37.2303L140.998 46.5803L143.138 51.1503L144.408 53.3303L145.858 54.2203L145.968 54.1503H145.998Z" fill="#4F0FFF"/>
<path d="M163.488 12.8405L160.708 16.8405L164.708 19.9305L168.338 16.0505L164.178 12.4805L163.988 13.8605L166.318 16.0905L164.598 18.2105L162.308 16.6305L163.758 13.7605L163.488 12.8405Z" fill="#4F0FFF"/>
<path d="M167.538 21.1506C169.925 24.1981 171.562 27.7639 172.318 31.5606L172.468 37.2806L171.928 40.1106L171.238 42.9006L172.428 43.3906L174.258 37.7006L174.108 31.3706C173.378 27.3006 171.518 23.2106 168.258 20.6006L167.538 21.1506Z" fill="#4F0FFF"/>
<path d="M167.538 23.1504L165.288 23.1904L164.298 26.0404L169.338 31.7504L170.438 40.4104L169.638 44.6704L168.798 46.4504L167.618 48.2104L168.498 49.0704L170.868 46.3904L171.968 42.9704L171.928 35.0304L168.528 28.6004L165.748 26.0604L167.158 23.8004L167.538 23.1504Z" fill="#4F0FFF"/>
<path d="M143.748 80.9002L144.168 80.0802L144.508 79.3102L144.318 79.2002L143.898 79.9202L143.478 80.7402L143.748 80.9002Z" fill="#4F0FFF"/>
<path d="M144.438 79.9803V79.5004L144.468 79.2904L144.588 79.2303L144.818 78.8904L145.158 78.6204L145.118 78.3804L144.248 79.0103L144.168 79.4604L144.208 80.0404L144.438 79.9803Z" fill="#4F0FFF"/>
<path d="M144.128 79.1205L150.128 79.3305L156.118 78.5505L155.628 76.7905L149.938 77.6305L144.318 77.7505L144.128 79.1205Z" fill="#4F0FFF"/>
<path d="M1.01683 63.4802C2.36092 68.7977 8.77056 72.9154 16.0363 76.4566C24.3336 80.5758 33.3905 84.2143 43.046 87.3074C52.9788 90.3641 64.2139 92.3316 75.4763 91.7483L90.4075 88.7686L97.7967 82.6772C100.826 77.2632 97.9448 71.4942 93.2029 66.412L84.947 58.8983L73.9073 53.8762L61.5938 55.7488L58.331 63.3052C59.8705 68.8307 66.3056 74.1704 73.4394 78.2368C87.5236 86.3222 110.803 93.1918 130.178 87.8867L136.138 85.6215L133.171 83.8624C129.798 85.3938 125.791 86.4755 121.448 87.0272C117.105 87.5789 112.538 87.5863 108.085 87.049C98.4957 86.0576 89.7244 83.1271 82.2136 79.6962C74.9519 76.493 69.1256 72.4315 65.2235 67.8525L62.2667 60.249L69.9432 55.7803L80.2716 59.133L87.7239 65.4338C92.3579 69.9713 96.1923 75.0575 94.7107 80.1927L89.9432 86.008L77.6409 89.4624C67.7861 90.502 57.2879 89.0941 48.2746 86.6644C38.1961 84.0122 29.0145 80.2248 20.334 76.4072C12.6186 72.9982 4.65768 68.7789 2.53872 63.3905L1.05186 63.5316L1.01683 63.4802Z" fill="#4F0FFF"/>
</svg>
