<svg width="211" height="209" viewBox="0 0 211 209" fill="none" xmlns="http://www.w3.org/2000/svg">
<rect width="5.70271" height="5.70271" rx="2.85136" fill="#6F47EB"/>
<rect x="22.8109" width="5.70271" height="5.70271" rx="2.85136" fill="#6F47EB"/>
<rect x="45.6219" width="5.70271" height="5.70271" rx="2.85136" fill="#6F47EB"/>
<rect x="68.4324" width="5.70271" height="5.70271" rx="2.85136" fill="#6F47EB"/>
<rect x="91.2434" width="5.70271" height="5.70271" rx="2.85136" fill="#6F47EB"/>
<rect x="114.054" width="5.70271" height="5.70271" rx="2.85136" fill="#6F47EB"/>
<rect x="136.865" width="5.70271" height="5.70271" rx="2.85136" fill="#6F47EB"/>
<rect x="159.676" width="5.70271" height="5.70271" rx="2.85136" fill="#6F47EB"/>
<rect x="182.487" width="5.70271" height="5.70271" rx="2.85136" fill="#6F47EB"/>
<rect x="205.297" width="5.70271" height="5.70271" rx="2.85136" fill="#6F47EB"/>
<rect y="22.8105" width="5.70271" height="5.70271" rx="2.85136" fill="#6F47EB"/>
<rect x="22.8109" y="22.8105" width="5.70271" height="5.70271" rx="2.85136" fill="#6F47EB"/>
<rect x="45.6219" y="22.8105" width="5.70271" height="5.70271" rx="2.85136" fill="#6F47EB"/>
<rect x="68.4324" y="22.8105" width="5.70271" height="5.70271" rx="2.85136" fill="#6F47EB"/>
<rect x="91.2434" y="22.8105" width="5.70271" height="5.70271" rx="2.85136" fill="#6F47EB"/>
<rect x="114.054" y="22.8105" width="5.70271" height="5.70271" rx="2.85136" fill="#6F47EB"/>
<rect x="136.865" y="22.8105" width="5.70271" height="5.70271" rx="2.85136" fill="#6F47EB"/>
<rect x="159.676" y="22.8105" width="5.70271" height="5.70271" rx="2.85136" fill="#6F47EB"/>
<rect x="182.487" y="22.8105" width="5.70271" height="5.70271" rx="2.85136" fill="#6F47EB"/>
<rect x="205.297" y="22.8105" width="5.70271" height="5.70271" rx="2.85136" fill="#6F47EB"/>
<rect y="45.6216" width="5.70271" height="5.70271" rx="2.85136" fill="#6F47EB"/>
<rect x="22.8109" y="45.6216" width="5.70271" height="5.70271" rx="2.85136" fill="#6F47EB"/>
<rect x="45.6219" y="45.6216" width="5.70271" height="5.70271" rx="2.85136" fill="#6F47EB"/>
<rect x="68.4324" y="45.6216" width="5.70271" height="5.70271" rx="2.85136" fill="#6F47EB"/>
<rect x="91.2434" y="45.6216" width="5.70271" height="5.70271" rx="2.85136" fill="#6F47EB"/>
<rect x="114.054" y="45.6216" width="5.70271" height="5.70271" rx="2.85136" fill="#6F47EB"/>
<rect x="136.865" y="45.6216" width="5.70271" height="5.70271" rx="2.85136" fill="#6F47EB"/>
<rect x="159.676" y="45.6216" width="5.70271" height="5.70271" rx="2.85136" fill="#6F47EB"/>
<rect x="182.487" y="45.6216" width="5.70271" height="5.70271" rx="2.85136" fill="#6F47EB"/>
<rect x="205.297" y="45.6216" width="5.70271" height="5.70271" rx="2.85136" fill="#6F47EB"/>
<rect y="68.4321" width="5.70271" height="5.70271" rx="2.85136" fill="#6F47EB"/>
<rect x="22.8109" y="68.4321" width="5.70271" height="5.70271" rx="2.85136" fill="#6F47EB"/>
<rect x="45.6219" y="68.4321" width="5.70271" height="5.70271" rx="2.85136" fill="#6F47EB"/>
<rect x="68.4324" y="68.4321" width="5.70271" height="5.70271" rx="2.85136" fill="#6F47EB"/>
<rect x="91.2434" y="68.4321" width="5.70271" height="5.70271" rx="2.85136" fill="#6F47EB"/>
<rect x="114.054" y="68.4321" width="5.70271" height="5.70271" rx="2.85136" fill="#6F47EB"/>
<rect x="136.865" y="68.4321" width="5.70271" height="5.70271" rx="2.85136" fill="#6F47EB"/>
<rect x="159.676" y="68.4321" width="5.70271" height="5.70271" rx="2.85136" fill="#6F47EB"/>
<rect x="182.487" y="68.4321" width="5.70271" height="5.70271" rx="2.85136" fill="#6F47EB"/>
<rect x="205.297" y="68.4321" width="5.70271" height="5.70271" rx="2.85136" fill="#6F47EB"/>
<rect y="91.2437" width="5.70271" height="5.70271" rx="2.85136" fill="#6F47EB"/>
<rect x="22.8109" y="91.2437" width="5.70271" height="5.70271" rx="2.85136" fill="#6F47EB"/>
<rect x="45.6219" y="91.2437" width="5.70271" height="5.70271" rx="2.85136" fill="#6F47EB"/>
<rect x="68.4324" y="91.2437" width="5.70271" height="5.70271" rx="2.85136" fill="#6F47EB"/>
<rect x="91.2434" y="91.2437" width="5.70271" height="5.70271" rx="2.85136" fill="#6F47EB"/>
<rect x="114.054" y="91.2437" width="5.70271" height="5.70271" rx="2.85136" fill="#6F47EB"/>
<rect x="136.865" y="91.2437" width="5.70271" height="5.70271" rx="2.85136" fill="#6F47EB"/>
<rect x="159.676" y="91.2437" width="5.70271" height="5.70271" rx="2.85136" fill="#6F47EB"/>
<rect x="182.487" y="91.2437" width="5.70271" height="5.70271" rx="2.85136" fill="#6F47EB"/>
<rect x="205.297" y="91.2437" width="5.70271" height="5.70271" rx="2.85136" fill="#6F47EB"/>
<rect y="114.054" width="5.70271" height="5.70271" rx="2.85136" fill="#6F47EB"/>
<rect x="22.8109" y="114.054" width="5.70271" height="5.70271" rx="2.85136" fill="#6F47EB"/>
<rect x="45.6219" y="114.054" width="5.70271" height="5.70271" rx="2.85136" fill="#6F47EB"/>
<rect x="68.4324" y="114.054" width="5.70271" height="5.70271" rx="2.85136" fill="#6F47EB"/>
<rect x="91.2434" y="114.054" width="5.70271" height="5.70271" rx="2.85136" fill="#6F47EB"/>
<rect x="114.054" y="114.054" width="5.70271" height="5.70271" rx="2.85136" fill="#6F47EB"/>
<rect x="136.865" y="114.054" width="5.70271" height="5.70271" rx="2.85136" fill="#6F47EB"/>
<rect x="159.676" y="114.054" width="5.70271" height="5.70271" rx="2.85136" fill="#6F47EB"/>
<rect x="182.487" y="114.054" width="5.70271" height="5.70271" rx="2.85136" fill="#6F47EB"/>
<rect x="205.297" y="114.054" width="5.70271" height="5.70271" rx="2.85136" fill="#6F47EB"/>
<rect y="136.865" width="5.70271" height="5.70271" rx="2.85136" fill="#6F47EB"/>
<rect y="158.865" width="5.70271" height="5.70271" rx="2.85136" fill="#6F47EB"/>
<rect y="180.866" width="5.70271" height="5.70271" rx="2.85136" fill="#6F47EB"/>
<rect y="202.865" width="5.70271" height="5.70271" rx="2.85136" fill="#6F47EB"/>
<rect x="22.8109" y="136.865" width="5.70271" height="5.70271" rx="2.85136" fill="#6F47EB"/>
<rect x="22.8109" y="158.865" width="5.70271" height="5.70271" rx="2.85136" fill="#6F47EB"/>
<rect x="22.8109" y="180.866" width="5.70271" height="5.70271" rx="2.85136" fill="#6F47EB"/>
<rect x="22.8109" y="202.865" width="5.70271" height="5.70271" rx="2.85136" fill="#6F47EB"/>
<rect x="45.6219" y="136.865" width="5.70271" height="5.70271" rx="2.85136" fill="#6F47EB"/>
<rect x="45.6219" y="158.865" width="5.70271" height="5.70271" rx="2.85136" fill="#6F47EB"/>
<rect x="45.6219" y="180.866" width="5.70271" height="5.70271" rx="2.85136" fill="#6F47EB"/>
<rect x="45.6219" y="202.865" width="5.70271" height="5.70271" rx="2.85136" fill="#6F47EB"/>
<rect x="68.4324" y="136.865" width="5.70271" height="5.70271" rx="2.85136" fill="#6F47EB"/>
<rect x="68.4324" y="158.865" width="5.70271" height="5.70271" rx="2.85136" fill="#6F47EB"/>
<rect x="68.4324" y="180.866" width="5.70271" height="5.70271" rx="2.85136" fill="#6F47EB"/>
<rect x="68.4324" y="202.865" width="5.70271" height="5.70271" rx="2.85136" fill="#6F47EB"/>
<rect x="91.2434" y="136.865" width="5.70271" height="5.70271" rx="2.85136" fill="#6F47EB"/>
<rect x="91.2434" y="158.865" width="5.70271" height="5.70271" rx="2.85136" fill="#6F47EB"/>
<rect x="91.2434" y="180.866" width="5.70271" height="5.70271" rx="2.85136" fill="#6F47EB"/>
<rect x="91.2434" y="202.865" width="5.70271" height="5.70271" rx="2.85136" fill="#6F47EB"/>
<rect x="114.054" y="136.865" width="5.70271" height="5.70271" rx="2.85136" fill="#6F47EB"/>
<rect x="114.054" y="158.865" width="5.70271" height="5.70271" rx="2.85136" fill="#6F47EB"/>
<rect x="114.054" y="180.866" width="5.70271" height="5.70271" rx="2.85136" fill="#6F47EB"/>
<rect x="114.054" y="202.865" width="5.70271" height="5.70271" rx="2.85136" fill="#6F47EB"/>
<rect x="136.865" y="136.865" width="5.70271" height="5.70271" rx="2.85136" fill="#6F47EB"/>
<rect x="136.865" y="158.865" width="5.70271" height="5.70271" rx="2.85136" fill="#6F47EB"/>
<rect x="136.865" y="180.866" width="5.70271" height="5.70271" rx="2.85136" fill="#6F47EB"/>
<rect x="136.865" y="202.865" width="5.70271" height="5.70271" rx="2.85136" fill="#6F47EB"/>
<rect x="159.676" y="136.865" width="5.70271" height="5.70271" rx="2.85136" fill="#6F47EB"/>
<rect x="159.676" y="158.865" width="5.70271" height="5.70271" rx="2.85136" fill="#6F47EB"/>
<rect x="159.676" y="180.866" width="5.70271" height="5.70271" rx="2.85136" fill="#6F47EB"/>
<rect x="159.676" y="202.865" width="5.70271" height="5.70271" rx="2.85136" fill="#6F47EB"/>
<rect x="182.487" y="136.865" width="5.70271" height="5.70271" rx="2.85136" fill="#6F47EB"/>
<rect x="182.487" y="158.865" width="5.70271" height="5.70271" rx="2.85136" fill="#6F47EB"/>
<rect x="182.487" y="180.866" width="5.70271" height="5.70271" rx="2.85136" fill="#6F47EB"/>
<rect x="182.487" y="202.865" width="5.70271" height="5.70271" rx="2.85136" fill="#6F47EB"/>
<rect x="205.297" y="136.865" width="5.70271" height="5.70271" rx="2.85136" fill="#6F47EB"/>
<rect x="205.297" y="158.865" width="5.70271" height="5.70271" rx="2.85136" fill="#6F47EB"/>
<rect x="205.297" y="180.866" width="5.70271" height="5.70271" rx="2.85136" fill="#6F47EB"/>
<rect x="205.297" y="202.865" width="5.70271" height="5.70271" rx="2.85136" fill="#6F47EB"/>
</svg>
