<svg width="300" height="109" viewBox="0 0 300 109" fill="none" xmlns="http://www.w3.org/2000/svg">
<path d="M222.407 44.368C231.502 40.1292 240.528 35.7638 249.73 31.6573C258.932 27.5507 268.175 23.5694 277.529 19.7484C282.853 17.5821 288.177 15.4616 293.546 13.3972L292.644 12.2038C279.881 22.1585 267.505 32.4175 255.515 42.9808C252.175 45.9311 248.845 48.9026 245.563 51.9067L247.061 52.7436C258.687 42.1149 270.714 31.773 283.141 21.7179C286.635 18.8811 290.13 16.0443 293.745 13.2974L292.844 12.1095C283.353 15.7572 273.955 19.5718 264.65 23.5532C255.345 27.5346 246.115 31.6895 236.959 36.0178C231.839 38.4329 226.753 40.8884 221.747 43.4917L222.407 44.368Z" fill="#4F0FFF"/>
<path d="M290.98 13.3794L286.693 14.1179L282.466 15.059C279.638 15.7012 276.824 16.3815 274.012 17.1244C268.419 18.5939 262.873 20.1972 257.374 21.9345C246.364 25.3988 235.576 29.3793 225.067 33.8548C219.122 36.4043 213.25 39.0916 207.522 41.9738L207.952 43.3097C213.745 42.7846 219.549 42.6441 225.304 42.8895L225.531 41.5426C219.637 41.217 213.679 41.3501 207.738 41.94L208.189 43.267C218.352 38.2411 228.817 33.6633 239.536 29.5552C250.24 25.5033 261.188 21.953 272.324 18.923C275.47 18.0763 278.625 17.2799 281.786 16.4824L286.496 15.3286L291.227 14.0854L290.98 13.3794Z" fill="#4F0FFF"/>
<path d="M289.147 14.1072L283.583 17.0325L278.269 20.0906C274.662 22.2062 271.056 24.3274 267.533 26.4701C260.489 30.7205 253.532 35.0663 246.661 39.5074C242.755 42.0018 238.859 44.5578 235.025 47.0983L234.798 47.8439C236.38 52.0105 237.647 56.2665 238.594 60.5895L240.065 60.8407L241.15 59.3596L242.319 57.9514L244.663 55.2657L249.474 49.812L248.998 49.4281L243.65 54.5534L241.179 57.299L240.003 58.7083L238.786 60.0784L240.257 60.3296C239.214 55.9046 237.841 51.5522 236.144 47.2957L235.902 48.038C249.501 38.9758 263.362 30.2182 277.486 21.7651L283.379 18.2443L286.442 16.4083L289.389 14.4646L289.147 14.1072Z" fill="#4F0FFF"/>
<path d="M223.923 44.2632L223.593 48.799L223.183 53.3703C222.804 56.4095 222.229 59.4415 221.46 62.4537L222.749 62.8249C225.195 60.1519 227.578 57.4887 230.001 54.848C232.423 52.2073 234.962 49.6744 236.927 46.8532L236.235 46.4573C233.492 48.8331 231.245 51.5895 228.853 54.1912C226.46 56.7929 224.031 59.5263 221.599 62.1514L222.888 62.5226C223.678 59.4713 224.238 56.3962 224.564 53.315L224.927 48.814L224.627 44.2792L223.949 44.2935L223.923 44.2632Z" fill="#4F0FFF"/>
<path d="M221.664 43.2811L221.496 45.3635L221.542 47.7674L221.636 52.5406L221.807 57.3017L221.857 59.5906L222.116 61.9327L222.846 61.8873L222.976 59.7422L222.875 57.3526L222.711 52.5904L222.508 47.8112L222.399 45.5546L222.098 43.2593L221.664 43.2811Z" fill="#4F0FFF"/>
<path d="M226.228 42.5683C225.923 45.1989 225.712 47.8376 225.539 50.4419L225.33 54.3233L225.317 56.1638L225.629 57.7987L225.93 57.7976L226.215 56.3268L226.223 54.2696L226.248 50.3942C226.33 47.8041 226.475 45.2043 226.699 42.6036L226.228 42.5683Z" fill="#4F0FFF"/>
<path d="M228.293 42.3144C228.033 44.497 227.905 46.6589 227.753 48.8475L227.549 52.121L227.583 55.2713L228.207 55.2367L228.514 51.9759L228.719 48.708C228.794 46.5716 228.897 44.4364 228.866 42.3164L228.325 42.3379L228.293 42.3144Z" fill="#4F0FFF"/>
<path d="M231.029 40.9479L230.699 46.8582L230.34 49.8239L229.991 52.6789L230.821 52.7211L231.39 49.9004L231.701 46.8105L231.737 40.9002L231.029 40.9479Z" fill="#4F0FFF"/>
<path d="M234.829 38.6471L234.359 44.2072L233.841 46.8482L233.379 49.4804L233.958 49.5216L234.874 46.8184L235.372 44.0489L235.625 38.5227L234.829 38.6471Z" fill="#4F0FFF"/>
<path d="M238.218 37.6134L237.697 41.9786L237.341 44.0503L237.018 46.1969L237.667 46.3189L238.312 44.3109L238.695 42.0404L238.979 37.5804L238.218 37.6134Z" fill="#4F0FFF"/>
<path d="M241.604 35.6415L240.379 39.8991L240.07 42.0894L240.241 44.0557L240.859 44.0222L241.184 42.07L241.426 39.9532L242.441 35.7742L241.604 35.6415Z" fill="#4F0FFF"/>
<path d="M244.136 34.0197L243.181 38.218L242.733 40.2524L242.554 42.2733L243.29 42.3989L243.901 40.5338L244.303 38.392L245.046 34.0722L244.136 34.0197Z" fill="#4F0FFF"/>
<path d="M246.707 33.16L245.746 37.1358L245.041 41.0087L246.032 41.0716L246.905 37.2183L247.618 33.2125L246.707 33.16Z" fill="#4F0FFF"/>
<path d="M249.271 31.8834L248.235 35.745L247.806 37.5817L247.604 39.4059L248.432 39.4313L249.044 37.7606L249.48 35.8312L250.269 31.9452L249.271 31.8834Z" fill="#4F0FFF"/>
<path d="M251.717 30.5849L250.701 34.0254L250.203 35.7411L250.056 37.2302L250.694 37.3253L251.346 36.0437L251.796 34.2037L252.659 30.6555L251.717 30.5849Z" fill="#4F0FFF"/>
<path d="M254.022 30.265L253.227 33.2357L252.825 34.6959L252.774 35.9294L253.303 36.0186L253.859 34.9925L254.269 33.3993L254.961 30.3187L254.022 30.265Z" fill="#4F0FFF"/>
<path d="M256.597 28.5514L255.732 31.4012L255.348 32.7955L255.147 34.1615L256.021 34.3055L256.508 33.0725L256.858 31.5975L257.459 28.6171L256.597 28.5514Z" fill="#4F0FFF"/>
<path d="M258.581 27.783L257.874 30.5853L257.668 31.9289L257.891 32.9879L258.39 33.0188L258.774 31.9966L258.969 30.6317L259.551 27.8491L258.581 27.783Z" fill="#4F0FFF"/>
<path d="M261.478 26.3909L260.742 28.8254L260.373 29.9941L260.145 31.1465L260.961 31.2825L261.433 30.2695L261.78 29.0125L262.528 26.4674L261.478 26.3909Z" fill="#4F0FFF"/>
<path d="M263.252 26.1537L262.845 27.9469L262.736 29.4931L263.395 29.5447L263.843 28.0086L264.163 26.2118L263.252 26.1537Z" fill="#4F0FFF"/>
<path d="M265.279 24.9667L265.185 27.7132L265.82 27.7457L266.13 25.0056L265.279 24.9667Z" fill="#4F0FFF"/>
<path d="M265.718 25.1618L266.911 26.1551L267.148 26.118L265.757 24.9094L265.718 25.1618Z" fill="#4F0FFF"/>
<path d="M162.355 70.8158C147.231 74.4016 130.996 76.5947 114.442 77.288C106.225 77.5878 97.9886 77.4881 89.8476 76.9903C85.7571 76.7391 81.7002 76.3821 77.693 75.9206C72.9069 75.4336 68.3087 74.5908 64.0496 73.4197C57.452 71.4547 51.9971 67.6343 54.109 63.5661C56.2209 59.4979 64.9443 57.2494 72.5509 56.9124L78.7703 57.507L81.596 59.653C82.0374 60.6054 81.967 61.6052 81.3919 62.5516C80.8169 63.4979 79.7574 64.3574 78.3205 65.0434C75.111 66.6483 70.6524 67.5078 66.3966 68.0476L54.3664 68.9167C38.2184 69.2914 22.2788 66.4425 9.33293 61.8504L4.64216 60.059L4.03744 61.0719C9.11237 60.7591 14.1852 60.4717 19.2645 60.1803L19.0024 59.0265C13.961 59.3264 8.87819 59.636 3.81112 59.9519L3.2178 60.9496C16.4164 66.2916 33.1804 69.8945 50.4851 70.058L63.1191 69.5665C67.732 69.2081 72.1962 68.4342 76.2942 67.2824C80.1619 66.1095 83.336 64.2937 84.1038 62.0139C84.7588 60.0698 83.6867 57.8397 80.481 56.6383C76.8489 55.2938 71.7404 55.6195 67.5689 56.219C63.4072 56.7842 59.5915 57.8867 56.5077 59.415C53.5199 60.8928 51.7349 62.8702 51.5122 64.9487C51.4499 67.0337 52.7094 69.0593 55.1095 70.7339C60.6661 74.7719 70.6803 76.2639 79.7998 77.2627C88.348 78.1465 97.0795 78.5742 105.85 78.5387C123.545 78.5288 141.109 76.5594 157.287 72.7714L162.904 71.3161L162.388 70.8355L162.355 70.8158Z" fill="#4F0FFF"/>
<path d="M9.41857 65.0991L6.93653 63.1158L6.20503 62.0707L5.19762 61.1982L4.49823 61.2418L4.98036 63.5917L8.2976 65.6312L9.41857 65.0991Z" fill="#4F0FFF"/>
<path d="M166.051 69.5816L170.543 68.8862L174.232 67.3669L173.038 66.748L171.4 67.3701L169.65 68.0065L165.771 69.0176L166.051 69.5816Z" fill="#4F0FFF"/>
<path d="M178.103 65.8541L183.136 64.8686L186.087 62.8066L185.207 62.5618L181.928 64.041L177.759 65.1136L178.103 65.8541Z" fill="#4F0FFF"/>
<path d="M190.384 60.9318L195.335 59.2183L194.186 58.434L189.498 60.3044L190.384 60.9318Z" fill="#4F0FFF"/>
<path d="M199.534 56.8253L202.134 55.457L204.93 54.3112L203.959 53.4003L198.671 56.5613L199.534 56.8253Z" fill="#4F0FFF"/>
<path d="M207.258 51.8839L210.551 50.3316L211.7 48.5119L210.854 48.3986L208.902 49.8276L206.573 51.533L207.258 51.8839Z" fill="#4F0FFF"/>
<path d="M214.739 46.8846L214.964 46.4228L215.013 45.9177L214.44 45.585L213.611 45.7343L213.142 46.2763L212.939 46.7729L213.705 47.2741L214.739 46.8846Z" fill="#4F0FFF"/>
</svg>
