<svg width="50" height="50" viewBox="0 0 50 50" fill="none" xmlns="http://www.w3.org/2000/svg">
<path d="M45.9189 25C45.9189 25.1855 45.9169 25.3701 45.9111 25.5537C45.7725 30.9348 43.6123 35.9727 39.792 39.7922C35.8418 43.7434 30.5879 45.9191 25 45.9191C19.4119 45.9191 14.1581 43.7434 10.2078 39.7922C6.3877 35.9728 4.22754 30.9346 4.08887 25.5537C4.08281 25.3701 4.08105 25.1855 4.08105 25C4.08105 19.4121 6.25664 14.1592 10.2078 10.208C14.1582 6.25684 19.4121 4.08105 25 4.08105C30.5879 4.08105 35.8418 6.25684 39.792 10.208C43.7432 14.1592 45.9189 19.4121 45.9189 25Z" fill="#F3B81A"/>
<path d="M39.792 10.208C35.8418 6.25684 30.5879 4.08105 25 4.08105C19.4119 4.08105 14.1581 6.25684 10.2078 10.208C6.25684 14.1592 4.08105 19.4121 4.08105 25C4.08105 25.1855 4.08301 25.3701 4.08887 25.5537C4.22754 30.9348 6.3877 35.9727 10.2078 39.7922C14.158 43.7434 19.4119 45.9191 25 45.9191C30.5879 45.9191 35.8418 43.7434 39.792 39.7922C43.6123 35.9729 45.7725 30.9348 45.9111 25.5537C45.9171 25.3701 45.9189 25.1855 45.9189 25C45.9189 19.4121 43.7432 14.1592 39.792 10.208ZM25 44.9426C15.7615 44.9426 7.9707 38.6279 5.71563 30.0881C5.28613 28.4639 5.05762 26.7578 5.05762 25C5.05762 14.0039 14.0039 5.05762 25 5.05762C35.9961 5.05762 44.9424 14.0039 44.9424 25C44.9424 26.7578 44.7137 28.4641 44.2842 30.0881C42.0293 38.6279 34.2383 44.9426 25 44.9426Z" fill="#5E2B16"/>
<path d="M20.9802 18.9924L20.2896 18.3018L18.6085 19.9829L16.9274 18.3018L16.2368 18.9924L17.918 20.6734L16.2368 22.3545L16.9274 23.0451L18.6085 21.364L20.2896 23.0451L20.9802 22.3545L19.299 20.6734L20.9802 18.9924Z" fill="#5E2B16"/>
<path d="M33.7634 18.9924L33.0727 18.3018L31.3915 19.9829L29.7106 18.3018L29.02 18.9924L30.7012 20.6734L29.02 22.3545L29.7106 23.0451L31.3915 21.364L33.0727 23.0451L33.7634 22.3545L32.0823 20.6734L33.7634 18.9924Z" fill="#5E2B16"/>
<path d="M30.9057 34.3262H19.0942V35.3027H30.9057V34.3262Z" fill="#5E2C17"/>
</svg>
