<svg width="50" height="50" viewBox="0 0 50 50" fill="none" xmlns="http://www.w3.org/2000/svg">
<path d="M45.9189 25C45.9189 25.1855 45.9169 25.3701 45.9111 25.5537C45.7725 30.9348 43.6123 35.9727 39.792 39.7922C35.8418 43.7434 30.5879 45.9191 25 45.9191C19.4119 45.9191 14.1581 43.7434 10.2078 39.7922C6.3877 35.9728 4.22754 30.9346 4.08887 25.5537C4.08281 25.3701 4.08105 25.1855 4.08105 25C4.08105 19.4121 6.25664 14.1592 10.2078 10.208C14.1582 6.25684 19.4121 4.08105 25 4.08105C30.5879 4.08105 35.8418 6.25684 39.792 10.208C43.7432 14.1592 45.9189 19.4121 45.9189 25Z" fill="#F3B81A"/>
<path d="M39.792 10.208C35.8418 6.25684 30.5879 4.08105 25 4.08105C19.4119 4.08105 14.1581 6.25684 10.2078 10.208C6.25684 14.1592 4.08105 19.4121 4.08105 25C4.08105 25.1855 4.08301 25.3701 4.08887 25.5537C4.22754 30.9348 6.3877 35.9727 10.2078 39.7922C14.158 43.7434 19.4119 45.9191 25 45.9191C30.5879 45.9191 35.8418 43.7434 39.792 39.7922C43.6123 35.9729 45.7725 30.9348 45.9111 25.5537C45.9171 25.3701 45.9189 25.1855 45.9189 25C45.9189 19.4121 43.7432 14.1592 39.792 10.208ZM25 44.9426C15.7615 44.9426 7.9707 38.6279 5.71563 30.0881C5.28613 28.4639 5.05762 26.7578 5.05762 25C5.05762 14.0039 14.0039 5.05762 25 5.05762C35.9961 5.05762 44.9424 14.0039 44.9424 25C44.9424 26.7578 44.7137 28.4641 44.2842 30.0881C42.0293 38.6279 34.2383 44.9426 25 44.9426Z" fill="#5E2B16"/>
<path d="M18.6084 17.5576C16.8906 17.5576 15.4932 18.9561 15.4932 20.6738C15.4932 22.3916 16.8908 23.7891 18.6084 23.7891C20.326 23.7891 21.7236 22.3914 21.7236 20.6738C21.7236 18.9563 20.3262 17.5576 18.6084 17.5576ZM18.6084 22.8125C17.4287 22.8125 16.4697 21.8525 16.4697 20.6738C16.4697 19.4941 17.4287 18.5342 18.6084 18.5342C19.7881 18.5342 20.7471 19.4941 20.7471 20.6738C20.7471 21.8525 19.7881 22.8125 18.6084 22.8125ZM31.3914 17.5576C29.6736 17.5576 28.2764 18.9561 28.2764 20.6738C28.2764 22.3916 29.6739 23.7891 31.3914 23.7891C33.1089 23.7891 34.5065 22.3914 34.5065 20.6738C34.5068 18.9561 33.1092 17.5576 31.3914 17.5576ZM31.3914 22.8125C30.2129 22.8125 29.2529 21.8525 29.2529 20.6738C29.2529 19.4941 30.2129 18.5342 31.3914 18.5342C32.5711 18.5342 33.53 19.4941 33.53 20.6738C33.5303 21.8525 32.5713 22.8125 31.3914 22.8125Z" fill="#5E2B16"/>
<path d="M30.9057 34.1309H19.0942V35.1074H30.9057V34.1309Z" fill="#5E2C17"/>
</svg>
