<svg width="50" height="50" viewBox="0 0 50 50" fill="none" xmlns="http://www.w3.org/2000/svg">
<path d="M45.9189 25C45.9189 25.1855 45.9169 25.3701 45.9111 25.5537C45.7725 30.9347 43.6123 35.9727 39.792 39.7921C35.8418 43.7433 30.5879 45.919 25 45.919C19.412 45.919 14.1581 43.7433 10.2079 39.7921C6.3877 35.9728 4.22754 30.9346 4.08887 25.5537C4.08291 25.3701 4.08105 25.1855 4.08105 25C4.08105 19.4121 6.25674 14.1592 10.2079 10.208C14.1582 6.25684 19.4121 4.08105 25 4.08105C30.5879 4.08105 35.8418 6.25684 39.792 10.208C43.7432 14.1592 45.9189 19.4121 45.9189 25Z" fill="#F3B81A"/>
<path d="M39.792 10.208C35.8418 6.25684 30.5879 4.08105 25 4.08105C19.412 4.08105 14.1581 6.25684 10.2079 10.208C6.25684 14.1592 4.08105 19.4121 4.08105 25C4.08105 25.1855 4.08301 25.3701 4.08887 25.5537C4.22754 30.9347 6.3877 35.9727 10.2079 39.7921C14.1581 43.7433 19.412 45.919 25 45.919C30.5879 45.919 35.8418 43.7433 39.792 39.7921C43.6123 35.9729 45.7725 30.9347 45.9111 25.5537C45.9171 25.3701 45.9189 25.1855 45.9189 25C45.9189 19.4121 43.7432 14.1592 39.792 10.208ZM25 44.9425C15.7616 44.9425 7.9707 38.6279 5.71572 30.088C5.28613 28.4639 5.05762 26.7578 5.05762 25C5.05762 14.0039 14.0039 5.05762 25 5.05762C35.9961 5.05762 44.9424 14.0039 44.9424 25C44.9424 26.7578 44.7138 28.464 44.2842 30.088C42.0293 38.6279 34.2383 44.9425 25 44.9425Z" fill="#5E2B16"/>
<path d="M18.6084 17.5576C16.8906 17.5576 15.4932 18.9561 15.4932 20.6738C15.4932 22.3916 16.8907 23.7891 18.6084 23.7891C20.3261 23.7891 21.7236 22.3915 21.7236 20.6738C21.7236 18.9562 20.3262 17.5576 18.6084 17.5576ZM18.6084 22.8125C17.4287 22.8125 16.4697 21.8525 16.4697 20.6738C16.4697 19.4941 17.4287 18.5342 18.6084 18.5342C19.7881 18.5342 20.7471 19.4941 20.7471 20.6738C20.7471 21.8525 19.7881 22.8125 18.6084 22.8125ZM31.3915 17.5576C29.6737 17.5576 28.2764 18.9561 28.2764 20.6738C28.2764 22.3916 29.6739 23.7891 31.3915 23.7891C33.1091 23.7891 34.5066 22.3915 34.5066 20.6738C34.5068 18.9561 33.1093 17.5576 31.3915 17.5576ZM31.3915 22.8125C30.2129 22.8125 29.2529 21.8525 29.2529 20.6738C29.2529 19.4941 30.2129 18.5342 31.3915 18.5342C32.5712 18.5342 33.5301 19.4941 33.5301 20.6738C33.5303 21.8525 32.5713 22.8125 31.3915 22.8125Z" fill="#5E2B16"/>
<path d="M24.9999 41.0093C16.1725 41.0093 8.99072 33.8275 8.99072 25H9.96729C9.96729 33.2891 16.7108 40.0327 24.9999 40.0327C33.2889 40.0327 40.0324 33.2891 40.0324 25H41.009C41.009 33.8275 33.8273 41.0093 24.9999 41.0093Z" fill="#5E2B16"/>
</svg>
