<svg width="50" height="50" viewBox="0 0 50 50" fill="none" xmlns="http://www.w3.org/2000/svg">
<path d="M45.9188 25C45.9188 25.1855 45.9168 25.3701 45.9111 25.5537C45.7724 30.935 43.6123 35.9727 39.792 39.7924C35.8418 43.7436 30.5879 45.9193 25 45.9193C19.4117 45.9193 14.1581 43.7436 10.2076 39.7924C6.3877 35.9728 4.22754 30.9346 4.08887 25.5537C4.08271 25.3701 4.08105 25.1855 4.08105 25C4.08105 19.4121 6.25645 14.1592 10.2076 10.208C14.1582 6.25684 19.4121 4.08105 25 4.08105C30.5879 4.08105 35.8418 6.25684 39.792 10.208C43.7432 14.1592 45.9188 19.4121 45.9188 25Z" fill="#F3B81A"/>
<path d="M39.792 10.208C35.8418 6.25684 30.5879 4.08105 25 4.08105C19.4117 4.08105 14.1581 6.25684 10.2076 10.208C6.25684 14.1592 4.08105 19.4121 4.08105 25C4.08105 25.1855 4.08301 25.3701 4.08887 25.5537C4.22754 30.935 6.3877 35.9727 10.2076 39.7924C14.1578 43.7436 19.4117 45.9193 25 45.9193C30.5879 45.9193 35.8418 43.7436 39.792 39.7924C43.6123 35.9731 45.7724 30.935 45.9111 25.5537C45.9171 25.3701 45.9188 25.1855 45.9188 25C45.9188 19.4121 43.7432 14.1592 39.792 10.208ZM25 44.9428C15.7613 44.9428 7.9707 38.628 5.71543 30.0883C5.28613 28.4639 5.05762 26.7578 5.05762 25C5.05762 14.0039 14.0039 5.05762 25 5.05762C35.9961 5.05762 44.9423 14.0039 44.9423 25C44.9423 26.7578 44.7135 28.4643 44.2842 30.0883C42.0293 38.628 34.2383 44.9428 25 44.9428Z" fill="#5E2B16"/>
<path d="M25.0001 37.5635C21.0203 37.5635 17.3312 35.7017 15.3726 32.7046L16.19 32.1699C17.9702 34.8941 21.3462 36.5868 25.0001 36.5868C28.654 36.5868 32.0294 34.8945 33.8102 32.1699L34.6276 32.7046C32.6689 35.7017 28.98 37.5635 25.0001 37.5635Z" fill="#5E2B16"/>
<path d="M21.2378 24.1622L18.6084 22.7801L15.979 24.1622L16.4812 21.2346L14.354 19.161L17.2938 18.7339L18.6085 16.0703L19.9231 18.7339L22.863 19.161L20.7358 21.2346L21.2378 24.1622ZM18.6084 21.6766L19.9408 22.3772L19.6865 20.8936L20.7645 19.8429L19.2748 19.6264L18.6086 18.2766L17.9424 19.6264L16.4527 19.8429L17.5307 20.8936L17.2764 22.3772L18.6084 21.6766ZM28.7623 24.1622L29.2647 21.2346L27.1375 19.161L30.0773 18.7339L31.392 16.0703L32.7068 18.7339L35.6467 19.161L33.5194 21.2346L34.022 24.1622L31.3922 22.7801L28.7623 24.1622ZM31.3914 21.6766L32.724 22.3772L32.4696 20.8936L33.5475 19.8429L32.0578 19.6264L31.3916 18.2766L30.7258 19.6264L29.2359 19.8429L30.3137 20.8936L30.0594 22.3772L31.3914 21.6766Z" fill="#5E2B16"/>
</svg>
